<svg height="512pt" viewBox="0 0 512 512" width="512pt" xmlns="http://www.w3.org/2000/svg" xmlns:xlink="http://www.w3.org/1999/xlink"><linearGradient id="a" gradientTransform="matrix(1 0 0 -1 0 -18006)" gradientUnits="userSpaceOnUse" x1="0" x2="512" y1="-18262" y2="-18262"><stop offset="0" stop-color="#00f38d"/><stop offset="1" stop-color="#009eff"/></linearGradient><path d="m512 256c0 141.386719-114.613281 256-256 256s-256-114.613281-256-256 114.613281-256 256-256 256 114.613281 256 256zm0 0" fill="url(#a)"/><g fill="#fff"><path d="m382.652344 88.445312h-253.304688c-22.523437 0-40.847656 18.324219-40.847656 40.851563v253.304687c0 22.519532 18.324219 40.847657 40.847656 40.847657h253.304688c22.523437 0 40.847656-18.324219 40.847656-40.847657v-253.304687c0-22.527344-18.324219-40.851563-40.847656-40.851563zm10.847656 294.15625c0 5.980469-4.867188 10.847657-10.847656 10.847657h-253.304688c-5.980468 0-10.847656-4.867188-10.847656-10.847657v-253.304687c0-5.984375 4.867188-10.851563 10.847656-10.851563h253.304688c5.980468 0 10.847656 4.867188 10.847656 10.851563zm0 0"/><path d="m142.269531 240.945312h227.457031v30h-227.457031zm0 0"/><path d="m169.410156 189.253906h173.179688v30h-173.179688zm0 0"/><path d="m182.335938 292.644531h147.328124v30h-147.328124zm0 0"/></g></svg>